<?xml version="1.0" encoding="utf-8"?>
<!-- Generator: Adobe Illustrator 22.1.0, SVG Export Plug-In . SVG Version: 6.00 Build 0)  -->
<!DOCTYPE svg PUBLIC "-//W3C//DTD SVG 1.0//EN" "http://www.w3.org/TR/2001/REC-SVG-20010904/DTD/svg10.dtd">
<svg version="1.0" id="Layer_1" xmlns="http://www.w3.org/2000/svg" xmlns:xlink="http://www.w3.org/1999/xlink" x="0px" y="0px"
	 viewBox="0 0 800 154.9" enable-background="new 0 0 800 154.9" xml:space="preserve">
<g>
	<path fill="#FFFFFF" d="M129.4,0.4H0v47l0.3,24c0,6.6,0.7,13.1,2.1,19.2c1.3,5.7,3.2,11.3,5.7,16.5c4.3,9.2,10.4,17.6,18.1,25
		c3.2,3.1,6.8,6,10.5,8.7c3.3,2.4,6.7,4.5,10.2,6.5c8,4.4,14,6.4,16.2,7l1.7,0.5l1.7-0.5c2.2-0.6,8.3-2.6,16.2-7
		c3.5-2,6.9-4.1,10.2-6.5c3.7-2.7,7.3-5.6,10.5-8.7c7.7-7.4,13.8-15.8,18.1-25c2.5-5.2,4.4-10.8,5.7-16.5c1.4-6.1,2.1-12.6,2.1-19.2
		l0.3-24V0.4z"/>
	<path fill="#000066" d="M1.5,48.9l0.2,22.5c0,6.5,0.7,12.8,2.1,18.9c1.3,5.6,3.1,11.1,5.6,16.2c4.2,9,10.2,17.2,17.8,24.5
		c3.2,3.1,6.6,5.9,10.3,8.6c3.2,2.3,6.6,4.5,10.1,6.4c7.8,4.4,13.7,6.3,15.9,6.9l1.3,0.4L66,153c2.2-0.6,8.1-2.6,15.9-6.9
		c3.5-1.9,6.8-4.1,10.1-6.4c3.7-2.7,7.1-5.5,10.3-8.6c7.6-7.3,13.6-15.5,17.8-24.5c2.4-5.1,4.3-10.6,5.6-16.2
		c1.4-6,2.1-12.4,2.1-18.9l0.2-22.5H1.5z M125.4,71.4c0,6.3-0.7,12.5-2,18.4c-1.2,5.4-3,10.7-5.4,15.7c-4.1,8.7-9.9,16.8-17.3,23.9
		c-3.1,3-6.5,5.8-10.1,8.4c-3.1,2.3-6.4,4.4-9.8,6.3c-7.6,4.2-13.3,6.1-15.5,6.7l-0.6,0.2l-0.6-0.2c-2.1-0.6-7.8-2.5-15.5-6.7
		c-3.4-1.9-6.7-4-9.8-6.3c-3.6-2.6-7-5.4-10.1-8.4c-7.4-7.1-13.2-15.1-17.3-23.9C9,100.6,7.2,95.3,6,89.8C4.7,84,4,77.8,4,71.4
		L3.8,51.2h121.8L125.4,71.4z"/>
	<path fill="#000066" d="M7.8,89.3c1.2,5.3,3,10.5,5.3,15.4c4,8.6,9.7,16.4,16.9,23.3c3,2.9,6.3,5.7,9.8,8.2
		c3.1,2.2,6.3,4.3,9.6,6.1c7.4,4.2,13,6,15,6.6l0.3,0.1l0.3-0.1c2-0.6,7.6-2.4,15-6.6c3.3-1.8,6.5-3.9,9.6-6.1
		c3.5-2.5,6.8-5.3,9.8-8.2c7.2-6.9,12.9-14.8,16.9-23.3c2.3-4.9,4.1-10.1,5.3-15.4c1.3-5.7,1.9-11.8,1.9-18l0.2-19H5.6l0.2,19
		C5.8,77.5,6.5,83.5,7.8,89.3z M122.7,53.4l-0.2,17.8c0,51-44.1,72.6-57.8,76.6C51,143.9,6.9,122.2,6.9,71.3L6.7,53.4H122.7z"/>
	<rect x="1.5" y="1.9" fill="#000066" width="126.4" height="9.5"/>
	<g>
		<rect x="76" y="100.6" fill="#990000" width="22.6" height="22.6"/>
		<rect x="76" y="55.3" fill="#990000" width="22.6" height="22.6"/>
		<rect x="30.7" y="55.3" fill="#990000" width="22.6" height="22.6"/>
		<rect x="30.7" y="100.6" fill="#990000" width="22.6" height="22.6"/>
		<rect x="53.4" y="77.9" fill="#990000" width="22.6" height="22.6"/>
		<path fill="#990000" d="M53.4,123.2v17.9c5.3,2.8,9.4,4.2,11.3,4.8c2-0.6,6-2,11.3-4.8v-17.9H53.4z"/>
		<path fill="#990000" d="M120.4,77.9H98.7v22.6h16.3c1.6-3.9,2.9-7.9,3.8-12C119.5,85.2,120.1,81.6,120.4,77.9z"/>
		<path fill="#990000" d="M30.7,77.9H9.1c0.3,3.6,0.8,7.2,1.6,10.7c0.9,4.1,2.2,8.1,3.8,12h16.3V77.9z"/>
	</g>
	<polygon fill="#000066" points="1.5,17.7 1.7,45.6 128,45.6 127.8,17.7 	"/>
	<g>
		<path fill-rule="evenodd" clip-rule="evenodd" fill="#000066" d="M249,93c0.3-11.9,0.4-15.3,13.7-17.2v-1.7h-37.2v1.7
			c13.3,1.8,13.4,5.3,13.7,17.2v40.6c-0.3,11.9-0.4,15.3-13.7,17.2v1.7h37.2v-1.7c-13.3-1.8-13.4-5.3-13.7-17.2V93z"/>
		<path fill-rule="evenodd" clip-rule="evenodd" fill="#000066" d="M584.7,72.6c-24.2,0-42.3,16-42.3,40.6c0,25,18,40.8,42.4,40.8
			c24.3,0,42.4-15.8,42.4-40.7C627.3,92.8,614.4,72.6,584.7,72.6z M583.8,75.4c17.7,0,29.7,19.4,30,39.9c0,16.5-8.5,36-27.6,36
			c-20.9,0-30.4-22.9-30.4-40.8C555.9,94.8,563.9,75.4,583.8,75.4z"/>
		<path fill-rule="evenodd" clip-rule="evenodd" fill="#000066" d="M644.4,74h-19.1v1.7c14.7,3.2,16.6,7.7,16.6,19.3v17.3
			c0,26.2,0.6,36.9-15.1,38.5v1.7h34.7v-1.7c-16.8-3.3-16.1-9.2-16.1-37.9V91.7c19.6,21,40.2,41.3,58.8,63.1l1.5-0.3
			c-0.6-25.2-1.2-53.1,0.5-65.8c0.9-7.5,2.4-11.9,10.4-12.9V74h-31.6v1.7c13.1,2.3,16.1,5.6,16.2,16.5l0.6,42.2L644.4,74z"/>
		<path fill-rule="evenodd" clip-rule="evenodd" fill="#000066" d="M337.8,78.9c-7.6-4.5-16.6-6.2-25.4-6.2
			c-30.6,0-46.7,20.8-46.7,41.4c0,26.1,21.6,40,45.8,40c8.2,0,16.2-1.4,23.6-5c2.8-6.7,5-13.6,6.4-20.7l-1.6-0.7
			c-5.2,12.5-11.2,23.6-26.4,23.6c-16.8,0-34.3-15.8-34.3-38.6c0-19.9,11.9-37.2,33.2-37.2c13.9,0,21.6,9.4,23.8,22.4h1.7V78.9z"/>
		<path fill-rule="evenodd" clip-rule="evenodd" fill="#000066" d="M365.7,114.6h46.6v19.1c0,12.7-0.2,15-15.4,17.2v1.7h40v-1.7
			c-13.9-1.8-14-5.3-14.4-17.2V93c0.3-11.9,0.5-15.4,14.4-17.2V74h-40v1.7c15.2,2.2,15.4,4.5,15.4,17.2v16.8h-46.6V93
			c0-12.7,0.2-15,15.4-17.2V74h-40v1.7c13.9,1.8,14,5.3,14.4,17.2v40.7c-0.3,11.9-0.5,15.4-14.4,17.2v1.7h40v-1.7
			c-15.2-2.2-15.4-4.5-15.4-17.2V114.6z"/>
		<path fill-rule="evenodd" clip-rule="evenodd" fill="#000066" d="M468.3,86.8c-0.8-1.9-3.9-8.8-1.4-11.4l-0.1-1.3h-25v1.7
			c6.8,0.6,13.4,3.2,12.7,10.9l-1.5,15.7l-4.3,32.5c-1.6,9.4-2.7,14.3-13,16.1v1.7H468v-1.7c-14-2.3-14.1-7.5-13.9-12
			c0.8-17.9,1.7-30.8,3.6-48.4h0.2l27.5,62.2h1.3l29.6-64.9h0.2l3.1,50.5c0.6,10.2-5.1,11.2-14,12.6v1.7h38.1v-1.7
			c-12.4-2.1-12.4-4.6-13.7-20.7l-2.5-42.1C527,80,531.5,77.3,539,75.8V74h-25.5l-0.2,1.9c2.5,1.7,0.9,7.5-2,13.9l-21,46L468.3,86.8
			z"/>
		<path fill-rule="evenodd" clip-rule="evenodd" fill="#000066" d="M715.7,75.9c13.2,1.8,13.2,5.8,13.6,17.7v40.1
			c-0.4,11.9-0.5,15.4-14.4,17.2v1.7l34.5,0.2c39.9,0.3,50.5-22.8,50.5-39.3c0-12-5.3-41.4-56.3-39.8l-28,0.5V75.9z M783,97.9
			c6.1,12.1,3.5,28.6-2.9,39.6c-8.4,10.1-20.8,14.5-33.3,10.4c-4-1.4-5.8-5.2-6.4-9V77.1C757.3,77.6,774.3,82,783,97.9z"/>
		<g>
			<g>
				<path fill="#000066" d="M209.7,2.5v1.2c-7.4,0.8-7.9,5.4-8.2,16.1L201,37.6c-0.2,10.5-4.7,21.1-22.8,21.1
					c-25.2,0-22.6-18.2-22.6-24.7V15.9c-0.2-8.4-0.3-10.8-10.1-12.1V2.5h28v1.2c-10.7,1.5-10.8,3.2-10.8,12.1v16.7
					c0,1.5-2.6,22.5,19.7,22.5c17.6,0,15.9-16.7,15.9-26.7v-8.5c0-10.3-0.8-15-12.2-16.1V2.5H209.7z"/>
				<path fill="#000066" d="M266.2,45l-0.4-29.7c-0.1-7.7-2.2-10-11.4-11.6V2.5h22.2v1.2c-5.6,0.7-6.7,3.8-7.3,9.1
					c-1.1,8.9-0.7,28.5-0.3,46.3l-1.1,0.2c-13-15.4-27.5-29.6-41.2-44.4v15c0,20.2-0.5,24.3,11.3,26.7v1.2h-24.3v-1.2
					c11-1.1,10.6-8.6,10.6-27.1V17.3c0-8.1-1.3-11.3-11.6-13.6V2.5h13.4L266.2,45z"/>
				<path fill="#000066" d="M297.9,44.5c0.2,8.4,0.3,10.8,10.1,12.1v1.2h-27.3v-1.2c9.8-1.3,9.8-3.7,10.1-12.1V15.9
					c-0.2-8.4-0.3-10.8-10.1-12.1V2.5h27.3v1.2c-9.8,1.3-9.8,3.7-10.1,12.1V44.5z"/>
				<path fill="#000066" d="M370,2.5v1.2c-7.6,0.6-10,7.1-15,18.9l-15.5,37.1h-1.1l-18.4-44c-2.4-5.9-4.3-11.1-11.5-11.9V2.5h25.8
					v1.2c-11.5,1.1-7.7,7.6-5.6,12.8l13,31.4l9.6-23c7-16.7,8.3-19.3-4.1-21.1V2.5H370z"/>
				<path fill="#000066" d="M370,56.6c9.8-1.3,9.8-3.7,10.1-12.1V15.9C379.8,7.5,379.7,5,370,3.7V2.5h43.7l-1,12.5h-1.2
					c-0.6-10.5-8.1-10.6-16.3-10.6h-7.9v23.2h8.5c6.1,0,10.7-0.5,11.6-7.5h1.2v18.1h-1.2c-1.1-7.2-5.5-7.2-11.6-7.2h-8.5v13.3
					c0,4.8-1.1,11.5,12.2,11.5c10.2,0,15.3-3.9,17.3-14.1h1.2c-0.1,6.2-1.1,11.2-2.8,16.1H370V56.6z"/>
				<path fill="#000066" d="M433.6,19.3c0-12.4-0.4-14.3-9.5-15.1V3L444,2.4c20.5-0.7,22.1,9.3,22.1,13.3c0,6.8-4.2,10.7-10.1,13.3
					l0.4,0.6c6.3,11,14.1,25,27.5,27.7l-0.2,1.2c-8.6-0.4-15-0.2-19.7-5c-5.4-5.6-9.6-12.8-11.3-16.3c-3.3-6.7-6.2-4.8-11.9-5.8
					v13.1c0,8.9,0.2,10.6,11.3,12.1v1.2h-28.5v-1.2c9.8-1.3,9.8-3.7,10.1-12.1V19.3z M440.8,30c7.8-0.1,16.9-3.7,16.9-12.7
					c0-9.5-8.4-13.3-16.9-13.3V30z"/>
				<path fill="#000066" d="M513.1,16.8h-1.3c-1.3-6.6-3.4-12.9-11.5-12.9c-5.2,0-9.5,3.6-9.5,8.9c0,14.1,25.6,13.6,25.6,30
					c0,10.5-10.4,15.9-19.8,15.9c-5,0-10.2-1.5-14.3-4.1L480,40.8h1.5c2,7.8,7.5,15.5,16.4,15.5c6,0,10.7-3.6,10.7-9.9
					c0-14.5-24.9-13.2-24.9-29.4c0-9.5,9.4-15.5,18.1-15.5c4.1,0,8.3,1.2,11.9,3.2L513.1,16.8z"/>
				<path fill="#000066" d="M540.1,44.5c0.2,8.4,0.3,10.8,10.1,12.1v1.2h-27.3v-1.2c9.8-1.3,9.8-3.7,10.1-12.1V15.9
					c-0.2-8.4-0.3-10.8-10.1-12.1V2.5h27.3v1.2c-9.8,1.3-9.8,3.7-10.1,12.1V44.5z"/>
				<path fill="#000066" d="M604.9,0h0.7l1.1,15.2l-1.1,0.2C602.7,5.4,598.3,5,588.9,5H584v37.6c0,10.1,0.5,12.8,11.4,14.1v1.2
					h-29.9v-1.2c10.9-1.3,11.4-4,11.4-14.1V5H572c-9.3,0-13.8,0.4-16.7,10.5l-1.1-0.2L555.3,0h0.6l0.8,0.7c2,1.9,2.4,1.8,5,1.8h37.2
					c2.7,0,3,0.1,5-1.8L604.9,0z"/>
				<path fill="#000066" d="M659.1,2.5v1.2c-7.1,0.6-10.6,4.5-14,10.3l-9.6,19v9.2c0.2,9.4,0.3,12.7,10.7,14.3v1.2h-28.6v-1.2
					c10.4-1.6,10.6-5,10.7-14.3v-6.5l-8.5-18.5c-3.1-6.8-5.3-12.6-13.5-13.6V2.5h22.4v1.2c-6.7,0.9-5.8,3.6-3.2,9.3l8.1,17.6
					l7.1-13.4c5-9.4,4.4-12.5-2.7-13.4V2.5H659.1z"/>
				<path fill="#000066" d="M743.5,30.2c0,17.5-12.7,28.6-29.8,28.6c-17.2,0-29.8-11.1-29.8-28.7c0-17.3,12.7-28.5,29.7-28.5
					C734.5,1.5,743.5,15.7,743.5,30.2z M693.4,28.1c0,12.6,6.7,28.7,21.3,28.7c13.4,0,19.3-13.7,19.3-25.3c-0.2-14.4-8.6-28-21.1-28
					C699.1,3.5,693.4,17.2,693.4,28.1z"/>
				<path fill="#000066" d="M788.2,20.4v19.8h-1.2c-0.7-8.2-4.9-8-11.7-8h-8.9v12.3c0,8.7,0.4,10.4,11.7,12.1v1.2h-28.9v-1.2
					c9.8-1.3,9.8-3.7,10.1-12.1V15.9C759,7.5,758.9,5,749.1,3.7V2.5h43l-1.3,12.8h-1.2c-0.5-10.5-7.3-10.9-15.9-10.9h-7.4v24.3h8.9
					c6.8,0,11.1-0.7,11.7-8.4H788.2z"/>
			</g>
			<g>
				<path fill="#000066" d="M157.1,97.5c0-17.7-0.6-20.3-13.5-21.5v-1.6l28.2-0.9c29.1-0.9,31.4,13.3,31.4,18.8
					c0,9.7-6,15.3-14.3,19l0.6,0.8c8.9,15.6,20,35.5,39.1,39.4l-0.3,1.7c-12.3-0.6-21.3-0.2-28-7.2c-7.6-8-13.6-18.1-16.1-23.1
					c-4.6-9.6-8.8-6.8-16.9-8.2v18.6c0,12.7,0.2,15,16.1,17.2v1.7h-40.6v-1.7c13.9-1.8,14-5.3,14.3-17.2V97.5z M167.2,112.8
					c11.1-0.1,24-5.2,24-18c0-13.5-11.9-19-24-18.8V112.8z"/>
			</g>
		</g>
	</g>
</g>
</svg>
